<svg width="68" height="24" viewBox="0 0 68 24" fill="none" xmlns="http://www.w3.org/2000/svg">
<path d="M22.4508 11.9999L15.1008 4.64991C14.8508 4.39991 14.7298 4.10824 14.7378 3.77491C14.7458 3.44157 14.8751 3.14991 15.1258 2.89991C15.3764 2.64991 15.6681 2.52491 16.0008 2.52491C16.3334 2.52491 16.6251 2.64991 16.8758 2.89991L24.5758 10.5749C24.7758 10.7749 24.9258 10.9999 25.0258 11.2499C25.1258 11.4999 25.1758 11.7499 25.1758 11.9999C25.1758 12.2499 25.1258 12.4999 25.0258 12.7499C24.9258 12.9999 24.7758 13.2249 24.5758 13.4249L16.8758 21.1249C16.6258 21.3749 16.3298 21.4959 15.9878 21.4879C15.6458 21.4799 15.3501 21.3506 15.1008 21.0999C14.8514 20.8492 14.7264 20.5576 14.7258 20.2249C14.7251 19.8922 14.8501 19.6006 15.1008 19.3499L22.4508 11.9999Z" fill="#D6D6D6"/>
<path d="M36.4508 11.9999L29.1008 4.64991C28.8508 4.39991 28.7298 4.10824 28.7378 3.77491C28.7458 3.44157 28.8751 3.14991 29.1258 2.89991C29.3764 2.64991 29.6681 2.52491 30.0008 2.52491C30.3334 2.52491 30.6251 2.64991 30.8758 2.89991L38.5758 10.5749C38.7758 10.7749 38.9258 10.9999 39.0258 11.2499C39.1258 11.4999 39.1758 11.7499 39.1758 11.9999C39.1758 12.2499 39.1258 12.4999 39.0258 12.7499C38.9258 12.9999 38.7758 13.2249 38.5758 13.4249L30.8758 21.1249C30.6258 21.3749 30.3298 21.4959 29.9878 21.4879C29.6458 21.4799 29.3501 21.3506 29.1008 21.0999C28.8514 20.8492 28.7264 20.5576 28.7258 20.2249C28.7251 19.8922 28.8501 19.6006 29.1008 19.3499L36.4508 11.9999Z" fill="#D6D6D6"/>
<path d="M50.4508 11.9999L43.1008 4.64991C42.8508 4.39991 42.7298 4.10824 42.7378 3.77491C42.7458 3.44157 42.8751 3.14991 43.1258 2.89991C43.3764 2.64991 43.6681 2.52491 44.0008 2.52491C44.3334 2.52491 44.6251 2.64991 44.8758 2.89991L52.5758 10.5749C52.7758 10.7749 52.9258 10.9999 53.0258 11.2499C53.1258 11.4999 53.1758 11.7499 53.1758 11.9999C53.1758 12.2499 53.1258 12.4999 53.0258 12.7499C52.9258 12.9999 52.7758 13.2249 52.5758 13.4249L44.8758 21.1249C44.6258 21.3749 44.3298 21.4959 43.9878 21.4879C43.6458 21.4799 43.3501 21.3506 43.1008 21.0999C42.8514 20.8492 42.7264 20.5576 42.7258 20.2249C42.7251 19.8922 42.8501 19.6006 43.1008 19.3499L50.4508 11.9999Z" fill="#D6D6D6"/>
</svg>
