<svg width="49" height="50" viewBox="0 0 49 50" fill="none" xmlns="http://www.w3.org/2000/svg">
<g clip-path="url(#clip0_3277_37470)">
<path d="M49 25C49 38.531 38.031 49.5 24.5 49.5C10.969 49.5 0 38.531 0 25C0 11.469 10.969 0.5 24.5 0.5C38.031 0.5 49 11.469 49 25Z" fill="url(#paint0_linear_3277_37470)"/>
<path d="M24.4216 18.4727L46.6369 50.0385H2.20625L24.4216 18.4727Z" fill="#1A54F4"/>
<path d="M27.0679 26.1869L29.2195 26.7659L29.7988 26.1869L24.3369 18.4121L23.5921 19.4046L9.02702 40.1649L8.44773 40.992H10.1856L13.0821 38.5934L15.5648 38.2626L19.206 33.7962L18.7923 31.9766L20.7784 26.9313L24.0059 24.0364L27.0679 26.1869Z" fill="white"/>
<path d="M30.1086 10.4087C29.8314 10.6748 29.5708 10.9456 29.3146 11.2119C28.0608 12.5151 26.9116 13.7097 24.4234 13.7097C22.8617 13.7097 21.8976 13.2834 21.1067 12.6834C20.6977 12.3731 20.3259 12.0093 19.9298 11.6019C19.8504 11.5202 19.7696 11.4364 19.6873 11.351C19.3941 11.0466 19.0818 10.7225 18.7439 10.406C19.0782 10.091 19.3802 9.77848 19.6701 9.47847C20.9318 8.173 21.9643 7.10465 24.4234 7.10465C26.8967 7.10465 27.9868 8.23505 29.2452 9.54003C29.5197 9.82458 29.8021 10.1174 30.1086 10.4087Z" stroke="white" stroke-width="1.22884"/>
<circle cx="24.3315" cy="10.2992" r="2.87241" stroke="white" stroke-width="1.01379"/>
<path d="M27.0342 8.27148H28.1474L29.3997 10.468L28.1474 12.6646H27.0342V8.27148Z" fill="white"/>
<path d="M21.6279 12.666L20.5147 12.666L19.2624 10.4695L20.5147 8.27291L21.6279 8.27291L21.6279 12.666Z" fill="white"/>
</g>
<defs>
<linearGradient id="paint0_linear_3277_37470" x1="24.331" y1="49.5" x2="24.331" y2="2.18965" gradientUnits="userSpaceOnUse">
<stop stop-color="white"/>
<stop offset="1" stop-color="#1A54F4"/>
</linearGradient>
<clipPath id="clip0_3277_37470">
<rect y="0.5" width="49" height="49" rx="24.5" fill="white"/>
</clipPath>
</defs>
</svg>
