<svg width="28" height="28" viewBox="0 0 28 28" fill="none" xmlns="http://www.w3.org/2000/svg">
<mask id="mask0_2610_39819" style="mask-type:alpha" maskUnits="userSpaceOnUse" x="0" y="0" width="28" height="28">
<rect x="28" y="27.999" width="27.9984" height="27.9984" transform="rotate(-180 28 27.999)" fill="#D9D9D9"/>
</mask>
<g mask="url(#mask0_2610_39819)">
<path d="M14.0006 3.50019L14.0006 5.8334L5.83438 5.8334L5.83437 22.1658L14.0006 22.1658L14.0006 24.499L5.83437 24.499C5.19274 24.499 4.64347 24.2706 4.18655 23.8136C3.72963 23.3567 3.50117 22.8074 3.50117 22.1658L3.50117 5.8334C3.50117 5.19176 3.72963 4.64249 4.18655 4.18557C4.64347 3.72865 5.19274 3.50019 5.83438 3.50019L14.0006 3.50019ZM16.3338 8.1666L17.9379 9.85817L14.963 12.833L24.5 12.833L24.5 15.1662L14.963 15.1662L17.9379 18.141L16.3338 19.8326L10.5008 13.9996L16.3338 8.1666Z" fill="#F9F9FA"/>
</g>
</svg>
